<?xml version="1.0" encoding="utf-8"?>
<!-- Generator: Adobe Illustrator 15.0.0, SVG Export Plug-In . SVG Version: 6.00 Build 0)  -->
<!DOCTYPE svg PUBLIC "-//W3C//DTD SVG 1.1//EN" "http://www.w3.org/Graphics/SVG/1.1/DTD/svg11.dtd">
<svg version="1.1" id="Vrstva_1" xmlns="http://www.w3.org/2000/svg" xmlns:xlink="http://www.w3.org/1999/xlink" x="0px" y="0px"
	 width="300px" height="300px" viewBox="0 0 300 300" enable-background="new 0 0 300 300" xml:space="preserve">
<path fill-rule="evenodd" clip-rule="evenodd" fill="#FFFFFF" d="M165.641,292.431c-6.141,6.14-14.405,7.791-22.669,4.486
	c-2.363-0.944-4.724-2.597-6.613-4.486L10.026,166.099c-6.14-6.142-7.792-14.407-4.487-22.434c0.945-2.598,2.597-4.961,4.487-6.849
	L136.358,10.482c6.376-5.903,14.403-7.556,22.67-4.486c2.362,1.181,4.723,2.597,6.612,4.486l126.333,126.333
	c6.14,6.377,7.79,14.405,4.484,22.67c-0.943,2.359-2.594,4.724-4.484,6.612L165.641,292.431z"/>
<path fill="none" stroke="#000000" stroke-width="1.1339" stroke-miterlimit="10" d="M165.641,292.431
	c-6.141,6.14-14.405,7.791-22.669,4.486c-2.363-0.944-4.724-2.597-6.613-4.486L10.026,166.099
	c-6.14-6.142-7.792-14.407-4.487-22.434c0.945-2.598,2.597-4.961,4.487-6.849L136.358,10.482c6.376-5.903,14.403-7.556,22.67-4.486
	c2.362,1.181,4.723,2.597,6.612,4.486l126.333,126.333c6.14,6.377,7.79,14.405,4.484,22.67c-0.943,2.359-2.594,4.724-4.484,6.612
	L165.641,292.431z"/>
<polygon fill-rule="evenodd" clip-rule="evenodd" fill="#FFF500" points="151.001,253.703 48.752,151.458 151.001,49.445 
	253.247,151.458 "/>
<polygon fill="none" stroke="#000000" stroke-width="0.7087" stroke-miterlimit="10" points="151.001,253.703 48.752,151.458 
	151.001,49.445 253.247,151.458 "/>
</svg>
