<?xml version="1.0" encoding="utf-8"?>
<!-- Generator: Adobe Illustrator 23.0.3, SVG Export Plug-In . SVG Version: 6.00 Build 0)  -->
<svg version="1.1" xmlns="http://www.w3.org/2000/svg" xmlns:xlink="http://www.w3.org/1999/xlink" x="0px" y="0px"
	 viewBox="0 0 850.39 850.39" style="enable-background:new 0 0 850.39 850.39;" xml:space="preserve">
<style type="text/css">
	.st0{fill:#666666;}
	.st1{fill:#999999;}
	.st2{fill:none;stroke:#FFFFFF;stroke-width:3;stroke-miterlimit:10;}
	.st3{fill:none;stroke:#FFFFFF;stroke-width:3;stroke-miterlimit:10;stroke-dasharray:11.0211,11.0211,11.0211,11.0211;}
	
		.st4{fill:none;stroke:#FFFFFF;stroke-width:3;stroke-miterlimit:10;stroke-dasharray:11.0211,11.0211,11.0211,11.0211,11.0211,11.0211;}
	.st5{fill:none;stroke:#FFFFFF;stroke-width:3;stroke-miterlimit:10;stroke-dasharray:11.0679,11.0679,11.0679,11.0679;}
	
		.st6{fill:none;stroke:#FFFFFF;stroke-width:3;stroke-miterlimit:10;stroke-dasharray:11.0679,11.0679,11.0679,11.0679,11.0679,11.0679;}
</style>
<g id="background">
</g>
<g id="sive_pozadie">
	<rect class="st0" width="850.39" height="850.39"/>
</g>
<g id="cesty">
	<polygon class="st1" points="850.39,283.46 850.39,566.93 566.93,566.93 566.93,850.39 283.46,850.39 283.46,566.93 0,566.93 
		0,283.46 283.46,283.46 283.46,0 566.93,0 566.93,283.46 	"/>
</g>
<g id="ciary">
	<g>
		<g>
			<line class="st2" x1="425.35" y1="141.73" x2="425.35" y2="131.73"/>
			<line class="st3" x1="425.35" y1="120.71" x2="425.35" y2="82.14"/>
			<line class="st4" x1="425.35" y1="76.63" x2="425.35" y2="16.01"/>
			<line class="st2" x1="425.35" y1="10.5" x2="425.35" y2="0.5"/>
		</g>
	</g>
	<line class="st2" x1="425.5" y1="148.5" x2="425.5" y2="281.5"/>
	<line class="st2" x1="283.5" y1="281.5" x2="427.5" y2="281.5"/>
	<g>
		<g>
			<line class="st2" x1="141.49" y1="425.05" x2="131.49" y2="425.05"/>
			<line class="st5" x1="120.42" y1="425.05" x2="81.68" y2="425.05"/>
			<line class="st6" x1="76.15" y1="425.05" x2="15.28" y2="425.05"/>
			<line class="st2" x1="9.74" y1="425.05" x2="-0.26" y2="425.05"/>
		</g>
	</g>
	<line class="st2" x1="148.25" y1="424.75" x2="281.25" y2="424.75"/>
	<line class="st2" x1="281.25" y1="567.75" x2="281.25" y2="423.75"/>
	<g>
		<g>
			<line class="st2" x1="425.78" y1="708.73" x2="425.78" y2="718.73"/>
			<line class="st5" x1="425.78" y1="729.8" x2="425.78" y2="768.54"/>
			<line class="st6" x1="425.78" y1="774.07" x2="425.78" y2="834.95"/>
			<line class="st2" x1="425.78" y1="840.48" x2="425.78" y2="850.48"/>
		</g>
	</g>
	<line class="st2" x1="425.5" y1="701.97" x2="425.56" y2="568.97"/>
	<line class="st2" x1="567.56" y1="569.03" x2="423.56" y2="568.97"/>
	<g>
		<g>
			<line class="st2" x1="706.51" y1="425.45" x2="716.51" y2="425.45"/>
			<line class="st5" x1="727.58" y1="425.45" x2="766.32" y2="425.45"/>
			<line class="st6" x1="771.85" y1="425.45" x2="832.72" y2="425.45"/>
			<line class="st2" x1="838.26" y1="425.45" x2="848.26" y2="425.45"/>
		</g>
	</g>
	<line class="st2" x1="699.75" y1="425.75" x2="566.75" y2="425.75"/>
	<line class="st2" x1="567.75" y1="282.75" x2="567.75" y2="426.75"/>
</g>
<g id="semafory">
</g>
</svg>
