<?xml version="1.0" encoding="utf-8"?>
<!-- Generator: Adobe Illustrator 23.0.3, SVG Export Plug-In . SVG Version: 6.00 Build 0)  -->
<svg version="1.1" xmlns="http://www.w3.org/2000/svg" xmlns:xlink="http://www.w3.org/1999/xlink" x="0px" y="0px"
	 viewBox="0 0 850.4 850.4" style="enable-background:new 0 0 850.4 850.4;" xml:space="preserve">
<style type="text/css">
	.st0{fill:#666666;}
	.st1{fill:#999999;}
	.st2{fill:#333333;}
	.st3{fill:none;stroke:#FFFFFF;stroke-width:3;stroke-miterlimit:10;}
	.st4{fill:none;stroke:#FFFFFF;stroke-width:3;stroke-miterlimit:10;stroke-dasharray:20.2118,20.2118,20.2118,20.2118;}
	
		.st5{fill:none;stroke:#FFFFFF;stroke-width:3;stroke-miterlimit:10;stroke-dasharray:20.2118,20.2118,20.2118,20.2118,20.2118,20.2118;}
</style>
<g id="Layer_1">
	<g id="background">
	</g>
	<g id="sive_pozadie">
		<rect y="0" class="st0" width="850.4" height="850.4"/>
	</g>
	<g id="kruhac">
		<path class="st1" d="M2.1-0.3C18.8,167.4,133,306.4,287.2,359.3V851h276V359.3c61.9-21.2,117.4-56.4,162.7-101.6
			c67.5-67.5,112.4-157.6,122.4-258L2.1-0.3L2.1-0.3z"/>
		<path class="st0" d="M212-0.3C228.6,102.5,317.7,181,425.2,181S621.8,102.5,638.4-0.3H212z"/>
	</g>
	<g id="znacka">
		
			<image style="overflow:visible;enable-background:new    ;" width="600" height="600" xlink:href="40EEF48E.png"  transform="matrix(0.1517 0 0 0.1517 586.3686 443.0682)">
		</image>
		<rect x="628" y="533.5" class="st2" width="7.7" height="96.8"/>
	</g>
	<g id="ciary">
		<g>
			<g>
				<line class="st3" x1="425.2" y1="607.7" x2="425.2" y2="617.7"/>
				<line class="st4" x1="425.2" y1="637.9" x2="425.2" y2="708.6"/>
				<line class="st5" x1="425.2" y1="718.7" x2="425.2" y2="829.9"/>
				<line class="st3" x1="425.2" y1="840" x2="425.2" y2="850"/>
			</g>
		</g>
		<polyline class="st3" points="425.2,596.4 425.2,369 563.5,369 		"/>
	</g>
</g>
<g id="daj_prednost">
	
		<image style="overflow:visible;" width="2363" height="2110" xlink:href="daj prednost.png"  transform="matrix(-3.838708e-02 0 0 -3.838708e-02 673.3929 443.0682)">
	</image>
</g>
</svg>
