<svg width="502" height="867" viewBox="0 0 502 867" fill="none" xmlns="http://www.w3.org/2000/svg">
<g id="car">
<path id="rect959" d="M77.4771 659.04H66.8719C62.1306 659.04 58.287 662.884 58.287 667.625V729.151C58.287 733.892 62.1306 737.736 66.8719 737.736H77.4771C82.2184 737.736 86.062 733.892 86.062 729.151V667.625C86.062 662.884 82.2184 659.04 77.4771 659.04Z" fill="#60585A"/>
<path id="rect958" d="M372.48 649.04H361.875C357.134 649.04 353.29 652.884 353.29 657.625V719.151C353.29 723.892 357.134 727.736 361.875 727.736H372.48C377.221 727.736 381.065 723.892 381.065 719.151V657.625C381.065 652.884 377.221 649.04 372.48 649.04Z" fill="#60585A"/>
<path id="rect317" d="M379.98 134.038H369.375C364.634 134.038 360.79 137.882 360.79 142.623V204.149C360.79 208.89 364.634 212.734 369.375 212.734H379.98C384.721 212.734 388.565 208.89 388.565 204.149V142.623C388.565 137.882 384.721 134.038 379.98 134.038Z" fill="#60585A"/>
<path id="rect316" d="M69.8234 137.12H59.2182C54.4769 137.12 50.6333 140.964 50.6333 145.705V207.231C50.6333 211.972 54.4769 215.816 59.2182 215.816H69.8234C74.5647 215.816 78.4083 211.972 78.4083 207.231V145.705C78.4083 140.964 74.5647 137.12 69.8234 137.12Z" fill="#60585A"/>
<path id="path184" fill-rule="evenodd" clip-rule="evenodd" d="M220.73 818.98C107.66 821.342 90.33 801.06 73.62 797.719C56.915 758.943 53.743 431.989 63.765 405.259C71.258 344.719 58.829 334.694 55.078 261.729C47.938 176.516 64.893 223.9 50.639 137.249C72.297 47.033 31.503 45.196 219.159 36.619C391.369 39.02 367.119 47.034 388.769 137.249C374.515 223.901 391.47 176.517 384.33 261.729C380.579 334.69 368.15 344.715 375.643 405.259C385.665 431.986 382.493 758.939 365.788 797.719C339.635 812.872 270.329 818.98 220.718 818.98H220.73Z" fill="url(#paint0_radial)" stroke="black"/>
<path id="path230" fill-rule="evenodd" clip-rule="evenodd" d="M79.198 80.521C67.531 99.188 68.382 276.741 87.049 290.741C105.079 275.89 209.529 262.095 229.389 263.377C249.677 261.885 329.083 271.432 353.479 286.074C360.056 288.204 373.206 80.524 354.538 66.524C296.198 50.18 102.528 50.18 79.198 80.514V80.521Z" fill="#00ADF7" fill-opacity="0.36" stroke="black" stroke-opacity="0.45912"/>
<path id="path185" fill-rule="evenodd" clip-rule="evenodd" d="M87.1748 304.421C87.1748 304.421 150.958 279.659 222.125 279.026C286.203 278.436 315.142 287.885 354.125 302.059C349.401 346.944 344.676 389.464 332.864 403.639C224.194 377.653 217.114 377.654 108.444 403.64C106.082 389.466 84.8208 306.784 87.1828 304.422L87.1748 304.421Z" fill="black" fill-opacity="0.9" stroke="black"/>
<path id="path189" fill-rule="evenodd" clip-rule="evenodd" d="M363.9 315.09L392.248 317.452C392.248 317.452 406.422 331.626 396.973 338.713C387.523 345.8 363.9 336.351 363.9 336.351V315.09Z" fill="#122A46" fill-opacity="0.94" stroke="black" stroke-opacity="0.55346" stroke-width="1.25"/>
<path id="path190" fill-rule="evenodd" clip-rule="evenodd" d="M78.946 319.82L50.598 322.182C50.598 322.182 36.424 336.356 45.873 343.443C55.323 350.53 78.946 341.081 78.946 341.081V319.82Z" fill="#122A46" fill-opacity="0.94" stroke="black" stroke-opacity="0.54717"/>
<path id="path304" fill-rule="evenodd" clip-rule="evenodd" d="M94.582 53.025C85.559 54.598 75.262 72.023 79.998 74.927C91.279 69.238 113.325 61.421 134.982 59.243C139.268 56.943 145.12 49.887 145.34 48.314C130.454 47.467 104.425 51.089 94.582 53.025V53.025Z" fill="#FBE206" fill-opacity="0.87" stroke="black" stroke-opacity="0.25157" stroke-width="1.082"/>
<path id="path307" d="M154.29 46.38C191.388 39.833 254.127 40.378 280.86 43.651" stroke="black" stroke-opacity="0.37107"/>
<path id="path308" d="M154.29 49.108C191.388 42.561 254.127 43.106 280.86 46.379" stroke="black" stroke-opacity="0.37107"/>
<path id="path309" d="M154.29 52.381C191.388 45.834 254.127 46.379 280.86 49.652" stroke="black" stroke-opacity="0.37107"/>
<path id="path310" d="M154.29 56.2C191.388 50.199 252.49 51.289 278.68 52.925" stroke="black" stroke-opacity="0.37107"/>
<path id="path211" d="M78.35 346.53C76.017 372.197 63.359 789.98 83.016 789.87C152.872 816.337 304.636 813.454 361.536 782.87C379.066 782.799 368.535 365.19 366.202 339.53" stroke="black"/>
<path id="path187" fill-rule="evenodd" clip-rule="evenodd" d="M358.536 342.004L342 417.599C342 417.599 342 559.339 344.362 561.699C346.725 564.061 365.623 604.22 365.623 604.22C365.623 604.22 360.899 346.73 358.536 342V342.004Z" fill="black" fill-opacity="0.84" stroke="black"/>
<path id="path186" fill-rule="evenodd" clip-rule="evenodd" d="M86.087 340.004L102.623 415.599C102.623 415.599 102.623 557.339 100.261 559.699C97.898 562.061 79 602.22 79 602.22C79 602.22 83.724 344.73 86.087 340V340.004Z" fill="black" fill-opacity="0.81" stroke="black"/>
<path id="path188" fill-rule="evenodd" clip-rule="evenodd" d="M130.261 565.367C118.449 622.062 109 730.727 109 730.727C127.899 747.263 224.75 754.35 227.12 754.35C234.207 754.35 331.06 747.263 347.6 723.64C347.6 709.466 338.15 607.89 328.701 563C246.02 574.811 134.991 570.087 130.261 565.362V565.367Z" fill="black" fill-opacity="0.9" stroke="black"/>
<g id="Right_light">
<g id="path306">
<g id="path306_2">
<path d="M289.94 43.4033C290.166 44.9763 296.014 53.6684 300.3 55.9683C301.925 56.1318 303.552 56.2932 305.177 56.4544C317.934 57.72 330.535 58.9701 340.7 61.0707V48.115C340.7 45.7298 304.828 42.5561 289.94 43.4033Z" fill="#FBF106" fill-opacity="0.88"/>
<path d="M355.284 65.652C360.02 62.748 349.723 49.6881 340.7 48.115V61.0707C346.494 62.2681 351.496 63.7417 355.284 65.652Z" fill="#FBF106" fill-opacity="0.88"/>
<path d="M340.7 48.115C349.723 49.6881 360.02 62.748 355.284 65.652C351.496 63.7417 346.494 62.2681 340.7 61.0707M340.7 48.115C340.7 45.7298 304.828 42.5561 289.94 43.4033C290.166 44.9763 296.014 53.6684 300.3 55.9683C301.925 56.1318 303.552 56.2932 305.177 56.4544C317.934 57.72 330.535 58.9701 340.7 61.0707M340.7 48.115V61.0707" stroke="black" stroke-opacity="0.25157" stroke-width="1.082"/>
</g>
</g>
</g>
<line id="Line 1" x1="93.2494" y1="54.0166" x2="92.2494" y2="69.0166" stroke="#8E890C" stroke-opacity="0.75" stroke-width="0.5"/>
<g id="Left_blinker">
<g id="Subtract">
<g id="Subtract_2" filter="url(#filter0_f)">
<path fill-rule="evenodd" clip-rule="evenodd" d="M74.1438 58.0411L49.6316 40.2442L71.2828 61.4292L44.4346 50.1872L70.0374 65.8976L43.4813 62.3109L70.5295 71.0088L46.865 75.4284L72.7111 76.2624L54.2546 88.2559L76.3684 81.1444L64.9267 99.5376L109.278 47.0161L109.514 47.2161L110.649 45.3918L94.4323 59.7527L97.7393 36.7601L89.0067 56.9647L83.8553 31.6235L83.4618 55.694L70.3563 30.4847L78.3404 56.0649L58.5636 33.4552L74.1438 58.0411ZM120.881 56.8149L120.978 56.8965L121.321 56.6735L120.881 56.8149Z" fill="#F8B200"/>
</g>
</g>
<g id="Subtract_3">
<g id="Subtract_4" filter="url(#filter1_f)">
<path fill-rule="evenodd" clip-rule="evenodd" d="M60.0205 795.729L34.2644 809.24L61.9227 799.506L41.1222 817.627L65.4392 802.356L51.6305 823.313L70.2258 803.999L64.7605 825.74L75.8139 804.274L79.227 824.671L81.6565 803.154L92.3556 818.417L63.8996 761.916L69.6463 779.304L50.3151 767.257L64.9793 782.758L40.1665 776.9L61.6274 786.924L33.7619 787.829L59.9187 791.393L31.7282 798.972L60.0205 795.729ZM63.8138 761.657L64.3289 761.433L63.2141 759.842L63.8138 761.657ZM77.5684 755.672L77.644 755.639L77.6011 755.383L77.5684 755.672Z" fill="#F8B200"/>
</g>
</g>
</g>
<g id="Right_blinker">
<g id="Subtract_5">
<g id="Subtract_6" filter="url(#filter2_f)">
<path fill-rule="evenodd" clip-rule="evenodd" d="M363.06 54.5748L383.046 33.445L360.036 51.6177L373.84 27.7332L355.786 50.0616L362.056 25.7605L350.725 50.0589L348.849 27.7199L345.349 51.6099L335.509 33.4196L340.185 54.5626L325.117 43.592L370.349 87.8194L359.277 73.2328L381.469 78.3641L362.572 68.4525L387.944 65.952L364.393 63.4254L390.461 53.5377L364.561 58.6434L388.774 42.3366L363.06 54.5748ZM370.514 88.0371L370.1 88.4161L371.67 89.5591L370.514 88.0371ZM359.442 98.1568L359.381 98.2125L359.505 98.4412L359.442 98.1568Z" fill="#F8B200"/>
</g>
</g>
<g id="Subtract_7">
<g id="Subtract_8" filter="url(#filter3_f)">
<path fill-rule="evenodd" clip-rule="evenodd" d="M370.707 810.908L390.733 832L373.823 808.047L396.931 823.115L375.605 803.886L399.534 811.454L375.879 798.833L398.287 798.16L374.619 793.382L393.312 784.533L371.948 788.066L383.713 773.609L337.119 816.4L352.279 806.128L345.963 828.012L356.876 809.675L358.01 835.145L361.798 811.764L370.271 838.325L366.564 812.188L381.546 837.242L370.707 810.908ZM336.893 816.554L336.537 816.119L335.311 817.626L336.893 816.554ZM327.383 804.954L327.33 804.89L327.095 805.001L327.383 804.954Z" fill="#F8B200"/>
</g>
</g>
</g>
</g>
<defs>
<filter id="filter0_f" x="22.7703" y="9.17133" width="103.67" height="104.323" filterUnits="userSpaceOnUse" color-interpolation-filters="sRGB">
<feFlood flood-opacity="0" result="BackgroundImageFix"/>
<feBlend mode="normal" in="SourceGraphic" in2="BackgroundImageFix" result="shape"/>
<feGaussianBlur stdDeviation="2" result="effect1_foregroundBlur"/>
</filter>
<filter id="filter1_f" x="27.7282" y="751.383" width="68.6274" height="78.3575" filterUnits="userSpaceOnUse" color-interpolation-filters="sRGB">
<feFlood flood-opacity="0" result="BackgroundImageFix"/>
<feBlend mode="normal" in="SourceGraphic" in2="BackgroundImageFix" result="shape"/>
<feGaussianBlur stdDeviation="2" result="effect1_foregroundBlur"/>
</filter>
<filter id="filter2_f" x="321.117" y="21.7605" width="73.3446" height="80.6807" filterUnits="userSpaceOnUse" color-interpolation-filters="sRGB">
<feFlood flood-opacity="0" result="BackgroundImageFix"/>
<feBlend mode="normal" in="SourceGraphic" in2="BackgroundImageFix" result="shape"/>
<feGaussianBlur stdDeviation="2" result="effect1_foregroundBlur"/>
</filter>
<filter id="filter3_f" x="323.095" y="769.609" width="80.4386" height="72.7159" filterUnits="userSpaceOnUse" color-interpolation-filters="sRGB">
<feFlood flood-opacity="0" result="BackgroundImageFix"/>
<feBlend mode="normal" in="SourceGraphic" in2="BackgroundImageFix" result="shape"/>
<feGaussianBlur stdDeviation="2" result="effect1_foregroundBlur"/>
</filter>
<radialGradient id="paint0_radial" cx="0" cy="0" r="1" gradientUnits="userSpaceOnUse" gradientTransform="translate(222.686 409.527) scale(835.238 1928.96)">
<stop stop-color="#00ADF7"/>
<stop offset="1" stop-color="#B79700"/>
</radialGradient>
</defs>
</svg>
