<?xml version="1.0" encoding="UTF-8" standalone="no"?>

<svg width="960" height="476" viewBox="0 0 960 476" fill="none" xmlns="http://www.w3.org/2000/svg"
    xmlns:xlink="http://www.w3.org/1999/xlink"
    version="1.1"
    id="svg2"
    style="display:inline">
    <title
            id="title3968">Red Car - Top View</title>
    <defs
            id="defs4">
        <linearGradient
                id="linearGradient3876">
            <stop
                    id="stop3878"
                    style="stop-color:#000000;stop-opacity:1"
                    offset="0" />
            <stop
                    id="stop3880"
                    style="stop-color:#b3b3b3;stop-opacity:0"
                    offset="1" />
        </linearGradient>
        <linearGradient
                id="linearGradient3866">
            <stop
                    id="stop3868"
                    style="stop-color:#000000;stop-opacity:1"
                    offset="0" />
            <stop
                    id="stop3870"
                    style="stop-color:#cccccc;stop-opacity:0"
                    offset="1" />
        </linearGradient>
        <linearGradient
                id="linearGradient3767">
            <stop
                    id="stop3769"
                    style="stop-color:#333333;stop-opacity:1"
                    offset="0" />
            <stop
                    id="stop3771"
                    style="stop-color:#808080;stop-opacity:0"
                    offset="1" />
        </linearGradient>
        <linearGradient
                id="linearGradient3759">
            <stop
                    id="stop3761"
                    style="stop-color:#1a1a1a;stop-opacity:1"
                    offset="0" />
            <stop
                    id="stop3763"
                    style="stop-color:#f30000;stop-opacity:0"
                    offset="1" />
        </linearGradient>
        <linearGradient
                x1="897.22186"
                y1="542.3974"
                x2="883.75842"
                y2="535.37097"
                id="linearGradient3765"
                xlink:href="#linearGradient3759"
                gradientUnits="userSpaceOnUse" />
        <linearGradient
                x1="879.89642"
                y1="537.5"
                x2="874.86749"
                y2="533.5"
                id="linearGradient3773"
                xlink:href="#linearGradient3767"
                gradientUnits="userSpaceOnUse" />
        <linearGradient
                x1="880.71014"
                y1="552.05042"
                x2="876.64569"
                y2="535.37097"
                id="linearGradient3785"
                xlink:href="#linearGradient3759"
                gradientUnits="userSpaceOnUse" />
        <linearGradient
                x1="887.89642"
                y1="528.35504"
                x2="876.13763"
                y2="528.41949"
                id="linearGradient3789"
                xlink:href="#linearGradient3767"
                gradientUnits="userSpaceOnUse" />
        <linearGradient
                x1="887.89642"
                y1="528.35504"
                x2="876.13763"
                y2="528.41949"
                id="linearGradient3811"
                xlink:href="#linearGradient3767"
                gradientUnits="userSpaceOnUse"
                gradientTransform="translate(-22,316.2677)" />
        <linearGradient
                x1="879.89642"
                y1="537.5"
                x2="874.86749"
                y2="533.5"
                id="linearGradient3813"
                xlink:href="#linearGradient3767"
                gradientUnits="userSpaceOnUse"
                gradientTransform="translate(-24,320.2677)" />
        <linearGradient
                x1="887.89642"
                y1="528.35504"
                x2="876.13763"
                y2="528.41949"
                id="linearGradient3843"
                xlink:href="#linearGradient3767"
                gradientUnits="userSpaceOnUse" />
        <linearGradient
                x1="879.89642"
                y1="537.5"
                x2="874.86749"
                y2="533.5"
                id="linearGradient3845"
                xlink:href="#linearGradient3767"
                gradientUnits="userSpaceOnUse" />
        <linearGradient
                x1="897.22186"
                y1="542.3974"
                x2="883.75842"
                y2="535.37097"
                id="linearGradient3847"
                xlink:href="#linearGradient3759"
                gradientUnits="userSpaceOnUse" />
        <linearGradient
                x1="880.71014"
                y1="552.05042"
                x2="876.64569"
                y2="535.37097"
                id="linearGradient3849"
                xlink:href="#linearGradient3759"
                gradientUnits="userSpaceOnUse" />
        <linearGradient
                x1="887.89642"
                y1="528.35504"
                x2="876.13763"
                y2="528.41949"
                id="linearGradient3851"
                xlink:href="#linearGradient3767"
                gradientUnits="userSpaceOnUse"
                gradientTransform="translate(-22,316.2677)" />
        <linearGradient
                x1="879.89642"
                y1="537.5"
                x2="874.86749"
                y2="533.5"
                id="linearGradient3853"
                xlink:href="#linearGradient3767"
                gradientUnits="userSpaceOnUse"
                gradientTransform="translate(-24,320.2677)" />
        <linearGradient
                x1="263.89166"
                y1="865.19409"
                x2="242.62505"
                y2="863.93677"
                id="linearGradient3872"
                xlink:href="#linearGradient3866"
                gradientUnits="userSpaceOnUse"
                gradientTransform="matrix(0.99043406,0.13798685,-0.13798685,0.99043406,130.62129,-29.069768)" />
        <linearGradient
                x1="252.14371"
                y1="864.27179"
                x2="232.43333"
                y2="863.93677"
                id="linearGradient3874"
                xlink:href="#linearGradient3876"
                gradientUnits="userSpaceOnUse"
                gradientTransform="matrix(0.99043406,0.13798685,-0.13798685,0.99043406,120.60901,-30.101958)" />
        <linearGradient
                x1="252.14371"
                y1="864.27179"
                x2="232.43333"
                y2="863.93677"
                id="linearGradient3886"
                xlink:href="#linearGradient3876"
                gradientUnits="userSpaceOnUse"
                gradientTransform="matrix(0.99043406,-0.13798685,-0.13798685,-0.99043406,120.60901,1463.2521)" />
        <linearGradient
                x1="263.89166"
                y1="865.19409"
                x2="242.62505"
                y2="863.93677"
                id="linearGradient3888"
                xlink:href="#linearGradient3866"
                gradientUnits="userSpaceOnUse"
                gradientTransform="matrix(0.99043406,-0.13798685,-0.13798685,-0.99043406,130.62129,1462.2199)" />
        <linearGradient
                x1="254.25746"
                y1="865.07489"
                x2="232.43333"
                y2="863.93677"
                id="linearGradient3960"
                xlink:href="#linearGradient3759"
                gradientUnits="userSpaceOnUse"
                gradientTransform="matrix(0.99043406,0.13798685,-0.13798685,0.99043406,146.04655,-33.884618)" />
        <linearGradient
                x1="263.89166"
                y1="865.19409"
                x2="242.62505"
                y2="863.93677"
                id="linearGradient3962"
                xlink:href="#linearGradient3759"
                gradientUnits="userSpaceOnUse"
                gradientTransform="matrix(0.99043406,0.13798685,-0.13798685,0.99043406,156.30883,-32.602428)" />
        <linearGradient
                x1="880.71014"
                y1="552.05042"
                x2="876.64569"
                y2="535.37097"
                id="linearGradient3991"
                xlink:href="#linearGradient3759"
                gradientUnits="userSpaceOnUse"
                gradientTransform="translate(21.43754,297.90666)" />
        <linearGradient
                x1="897.22186"
                y1="542.3974"
                x2="883.75842"
                y2="535.37097"
                id="linearGradient3994"
                xlink:href="#linearGradient3759"
                gradientUnits="userSpaceOnUse"
                gradientTransform="translate(21.43754,297.90666)" />
        <linearGradient
                x1="879.89642"
                y1="537.5"
                x2="874.86749"
                y2="533.5"
                id="linearGradient3997"
                xlink:href="#linearGradient3759"
                gradientUnits="userSpaceOnUse"
                gradientTransform="translate(21.43754,297.90666)" />
        <linearGradient
                x1="887.89642"
                y1="528.35504"
                x2="876.13763"
                y2="528.41949"
                id="linearGradient4000"
                xlink:href="#linearGradient3759"
                gradientUnits="userSpaceOnUse"
                gradientTransform="translate(21.43754,297.90666)" />
        <linearGradient
                x1="879.89642"
                y1="537.5"
                x2="874.86749"
                y2="533.5"
                id="linearGradient4008"
                xlink:href="#linearGradient3759"
                gradientUnits="userSpaceOnUse"
                gradientTransform="matrix(0.89332217,0,0,0.89332217,92.369757,365.14619)" />
        <linearGradient
                x1="887.89642"
                y1="528.35504"
                x2="876.13763"
                y2="528.41949"
                id="linearGradient4011"
                xlink:href="#linearGradient3759"
                gradientUnits="userSpaceOnUse"
                gradientTransform="matrix(0.89332217,0,0,0.89332217,94.156401,361.5729)" />
        <linearGradient
                x1="880.71014"
                y1="552.05042"
                x2="835.98706"
                y2="501.07629"
                id="linearGradient4131"
                xlink:href="#linearGradient3759"
                gradientUnits="userSpaceOnUse"
                gradientTransform="translate(21.43754,297.90666)" />
        <linearGradient
                x1="879.89642"
                y1="537.5"
                x2="815.8241"
                y2="531.909"
                id="linearGradient4133"
                xlink:href="#linearGradient3759"
                gradientUnits="userSpaceOnUse"
                gradientTransform="translate(21.43754,297.90666)" />
        <linearGradient
                x1="879.89642"
                y1="537.5"
                x2="812.13739"
                y2="533.5"
                id="linearGradient4135"
                xlink:href="#linearGradient3759"
                gradientUnits="userSpaceOnUse"
                gradientTransform="matrix(0.89332217,0,0,0.89332217,92.369757,365.14619)" />
        <linearGradient
                x1="887.89642"
                y1="528.35504"
                x2="805.29413"
                y2="529.60681"
                id="linearGradient4137"
                xlink:href="#linearGradient3759"
                gradientUnits="userSpaceOnUse"
                gradientTransform="matrix(0.89332217,0,0,0.89332217,94.156401,361.5729)" />
        <linearGradient
                x1="229.69746"
                y1="873.13715"
                x2="205.59436"
                y2="867.67596"
                id="linearGradient4139"
                xlink:href="#linearGradient3759"
                gradientUnits="userSpaceOnUse"
                gradientTransform="matrix(0.99043406,0.13798685,-0.13798685,0.99043406,146.04655,-33.884618)" />
        <linearGradient
                x1="238.83344"
                y1="873.05804"
                x2="216.55965"
                y2="872.64813"
                id="linearGradient4141"
                xlink:href="#linearGradient3759"
                gradientUnits="userSpaceOnUse"
                gradientTransform="matrix(0.99043406,0.13798685,-0.13798685,0.99043406,156.30883,-32.602428)" />
        <linearGradient
                x1="871.32599"
                y1="842.30206"
                x2="848.16486"
                y2="834.67706"
                id="linearGradient4149"
                xlink:href="#linearGradient3759"
                gradientUnits="userSpaceOnUse"
                gradientTransform="translate(8.3085117,-2.651773)" />
        <linearGradient
                x1="879.89642"
                y1="537.5"
                x2="812.13739"
                y2="533.5"
                id="linearGradient4153"
                xlink:href="#linearGradient3759"
                gradientUnits="userSpaceOnUse"
                gradientTransform="matrix(0.89332217,0,0,0.89332217,80.348949,365.14607)" />
        <linearGradient
                x1="879.89642"
                y1="537.5"
                x2="815.8241"
                y2="531.909"
                id="linearGradient4155"
                xlink:href="#linearGradient3759"
                gradientUnits="userSpaceOnUse"
                gradientTransform="translate(27.624731,296.49233)" />
        <linearGradient
                x1="871.32599"
                y1="842.30206"
                x2="848.16486"
                y2="834.67706"
                id="linearGradient4185"
                xlink:href="#linearGradient3759"
                gradientUnits="userSpaceOnUse"
                gradientTransform="matrix(1,0,0,-1,8.3085117,1452.0379)" />
        <linearGradient
                x1="887.89642"
                y1="528.35504"
                x2="876.13763"
                y2="528.41949"
                id="linearGradient4187"
                xlink:href="#linearGradient3759"
                gradientUnits="userSpaceOnUse"
                gradientTransform="matrix(1,0,0,-1,21.437547,1151.4796)" />
        <linearGradient
                x1="879.89642"
                y1="537.5"
                x2="815.8241"
                y2="531.909"
                id="linearGradient4189"
                xlink:href="#linearGradient3759"
                gradientUnits="userSpaceOnUse"
                gradientTransform="matrix(1,0,0,-1,27.624731,1152.8938)" />
        <linearGradient
                x1="897.22186"
                y1="542.3974"
                x2="883.75842"
                y2="535.37097"
                id="linearGradient4191"
                xlink:href="#linearGradient3759"
                gradientUnits="userSpaceOnUse"
                gradientTransform="matrix(1,0,0,-1,21.437547,1151.4796)" />
        <linearGradient
                x1="880.71014"
                y1="552.05042"
                x2="835.98706"
                y2="501.07629"
                id="linearGradient4193"
                xlink:href="#linearGradient3759"
                gradientUnits="userSpaceOnUse"
                gradientTransform="matrix(1,0,0,-1,21.437547,1151.4796)" />
        <linearGradient
                x1="887.89642"
                y1="528.35504"
                x2="805.29413"
                y2="529.60681"
                id="linearGradient4195"
                xlink:href="#linearGradient3759"
                gradientUnits="userSpaceOnUse"
                gradientTransform="matrix(0.89332217,0,0,-0.89332217,94.156408,1087.8133)" />
        <linearGradient
                x1="879.89642"
                y1="537.5"
                x2="812.13739"
                y2="533.5"
                id="linearGradient4197"
                xlink:href="#linearGradient3759"
                gradientUnits="userSpaceOnUse"
                gradientTransform="matrix(0.89332217,0,0,-0.89332217,80.348949,1084.24)" />
        <linearGradient
                x1="229.69746"
                y1="873.13715"
                x2="205.59436"
                y2="867.67596"
                id="linearGradient4199"
                xlink:href="#linearGradient3759"
                gradientUnits="userSpaceOnUse"
                gradientTransform="matrix(0.99043406,-0.13798685,-0.13798685,-0.99043406,146.04656,1483.2708)" />
        <linearGradient
                x1="238.83344"
                y1="873.05804"
                x2="216.55965"
                y2="872.64813"
                id="linearGradient4201"
                xlink:href="#linearGradient3759"
                gradientUnits="userSpaceOnUse"
                gradientTransform="matrix(0.99043406,-0.13798685,-0.13798685,-0.99043406,156.30884,1481.9887)" />
        <linearGradient
                x1="887.89642"
                y1="528.35504"
                x2="876.13763"
                y2="528.41949"
                id="linearGradient4203"
                xlink:href="#linearGradient3759"
                gradientUnits="userSpaceOnUse"
                gradientTransform="translate(21.437547,297.90654)" />
        <linearGradient
                x1="897.22186"
                y1="542.3974"
                x2="883.75842"
                y2="535.37097"
                id="linearGradient4205"
                xlink:href="#linearGradient3759"
                gradientUnits="userSpaceOnUse"
                gradientTransform="translate(21.437547,297.90654)" />
        <linearGradient
                x1="880.71014"
                y1="552.05042"
                x2="835.98706"
                y2="501.07629"
                id="linearGradient4207"
                xlink:href="#linearGradient3759"
                gradientUnits="userSpaceOnUse"
                gradientTransform="translate(21.437547,297.90654)" />
        <linearGradient
                x1="887.89642"
                y1="528.35504"
                x2="805.29413"
                y2="529.60681"
                id="linearGradient4209"
                xlink:href="#linearGradient3759"
                gradientUnits="userSpaceOnUse"
                gradientTransform="matrix(0.89332217,0,0,0.89332217,94.156408,361.57278)" />
        <linearGradient
                x1="229.69746"
                y1="873.13715"
                x2="205.59436"
                y2="867.67596"
                id="linearGradient4211"
                xlink:href="#linearGradient3759"
                gradientUnits="userSpaceOnUse"
                gradientTransform="matrix(0.99043406,0.13798685,-0.13798685,0.99043406,146.04656,-33.884741)" />
        <linearGradient
                x1="238.83344"
                y1="873.05804"
                x2="216.55965"
                y2="872.64813"
                id="linearGradient4213"
                xlink:href="#linearGradient3759"
                gradientUnits="userSpaceOnUse"
                gradientTransform="matrix(0.99043406,0.13798685,-0.13798685,0.99043406,156.30884,-32.602551)" />
    </defs>
<g id="simple-travel-car-top_view 1 1">
<g clip-path="url(#clip0)">
<g id="Group">
<path id="Vector" d="M553.115 7.22616C551.607 7.2587 548.399 7.6047 546.662 8.26448L543.186 9.81891L552.401 45.617L427.61 47.8456C425.174 47.8886 422.723 47.908 420.267 47.9291C415.355 47.9715 410.401 47.9785 405.421 47.942C398.127 47.8885 390.748 47.758 383.351 47.5676C382.954 47.5574 382.559 47.5342 382.162 47.5236C367.222 47.1265 352.135 46.5003 337.099 45.789C316.755 44.8236 296.542 43.7142 276.921 42.8526C262.382 42.2141 248.168 41.7215 234.521 41.514C225.148 41.3714 216.052 41.3457 207.268 41.533C202.953 41.6251 198.703 41.7599 194.555 41.9501C190.406 42.1403 186.181 42.4362 181.91 42.8039C179.775 42.9877 177.638 43.1808 175.481 43.4042C169.022 44.0735 162.459 44.929 155.924 45.8972C155.914 45.8983 155.903 45.8965 155.893 45.8977C151.53 46.5444 147.195 47.2591 142.862 48.0075C138.529 48.7559 134.212 49.5404 129.96 50.3653C125.719 51.1882 121.515 52.0627 117.405 52.9366C117.395 52.9387 117.384 52.9348 117.374 52.937C115.314 53.375 113.317 53.8045 111.3 54.2506C105.259 55.5867 99.407 56.9527 93.8611 58.3046C93.8511 58.3067 93.84 58.3028 93.8299 58.305C90.1271 59.2078 86.5697 60.0937 83.1516 60.972C76.3143 62.7273 70.0884 64.4108 64.6955 65.9168C56.6061 68.1758 50.3761 70.068 46.6821 71.1985C44.22 71.9528 42.8877 72.3828 42.8877 72.3828L29.2605 76.3459C28.3621 76.6087 27.4934 77.0665 26.6563 77.6992C26.3719 77.9142 26.1009 78.1438 25.8234 78.3998C24.7393 79.3964 23.7081 80.7037 22.7276 82.2923C22.7231 82.2994 22.7325 82.3165 22.7281 82.3235C22.24 83.1159 21.7313 83.9797 21.2682 84.9091C21.2642 84.9172 21.2728 84.9322 21.2687 84.9403C20.8056 85.8713 20.3476 86.8691 19.909 87.9306C19.9054 87.9397 19.913 87.9527 19.9095 87.9618C16.3757 96.5275 13.62 109.194 11.5383 124.316C11.5369 124.326 11.5401 124.337 11.5388 124.347C11.5065 124.582 11.4882 124.832 11.4562 125.067C11.0037 128.406 10.5704 131.88 10.1803 135.432C10.1536 135.675 10.1242 135.908 10.0978 136.152C9.6594 140.203 9.2792 144.369 8.91754 148.641C8.9167 148.651 8.91887 148.662 8.91803 148.672C8.73772 150.804 8.55597 152.973 8.39404 155.15C8.39328 155.16 8.39529 155.171 8.39453 155.181C8.23267 157.358 8.07846 159.536 7.9345 161.752C7.93383 161.762 7.93565 161.773 7.93498 161.783C7.64652 166.226 7.39648 170.738 7.17701 175.296C7.17651 175.307 7.17799 175.317 7.17749 175.328C6.51852 189.024 6.15168 203.136 6.04498 216.913C6.0449 216.923 6.04555 216.934 6.04547 216.944C5.97445 226.136 6.0171 235.16 6.15274 243.852C6.16784 244.82 6.21092 245.814 6.22982 246.789C6.24133 247.763 6.22931 248.759 6.24441 249.726C6.38005 258.419 6.619 267.44 6.97669 276.625C6.9771 276.635 6.97677 276.645 6.97718 276.656C7.5137 290.423 8.32069 304.517 9.4067 318.185C9.4075 318.196 9.4064 318.206 9.4072 318.217C9.7688 322.766 10.1595 327.268 10.5864 331.7C10.5874 331.71 10.586 331.721 10.5869 331.731C10.8 333.941 11.022 336.113 11.2518 338.284C11.2528 338.294 11.2512 338.305 11.2522 338.315C11.482 340.486 11.7314 342.649 11.9781 344.773C11.9793 344.784 11.9774 344.794 11.9786 344.805C12.4734 349.064 12.9834 353.216 13.5479 357.25C13.5819 357.493 13.6186 357.725 13.6529 357.968C14.1536 361.506 14.6951 364.964 15.2516 368.288C15.2909 368.522 15.317 368.771 15.3566 369.005C15.3582 369.015 15.3554 369.026 15.357 369.036C17.9096 384.085 21.0591 396.66 24.8585 405.111C24.8623 405.12 24.8551 405.134 24.859 405.142C25.3305 406.189 25.8194 407.172 26.3114 408.089C26.3157 408.096 26.3075 408.112 26.3118 408.12C26.8037 409.034 27.3391 409.882 27.8516 410.659C27.8563 410.665 27.8474 410.683 27.8521 410.69C28.8818 412.247 29.9532 413.521 31.0679 414.484C31.3532 414.731 31.6313 414.952 31.9223 415.158C32.7787 415.764 33.6613 416.195 34.5674 416.429L48.3116 419.965C48.3116 419.965 49.6567 420.354 52.1412 421.031C55.8686 422.046 62.1547 423.742 70.3105 425.748C75.7478 427.085 82.0233 428.573 88.912 430.114C92.3558 430.886 95.9391 431.66 99.668 432.447C99.679 432.449 99.689 432.444 99.7 432.446C105.285 433.625 111.176 434.807 117.256 435.954C119.286 436.337 121.296 436.704 123.368 437.078C123.378 437.079 123.389 437.075 123.399 437.077C127.535 437.822 131.763 438.565 136.028 439.255C140.304 439.947 144.644 440.597 148.998 441.209C153.352 441.822 157.707 442.401 162.088 442.912C162.099 442.912 162.11 442.91 162.12 442.911C168.681 443.675 175.268 444.325 181.745 444.793C183.907 444.949 186.049 445.075 188.189 445.192C192.47 445.426 196.702 445.59 200.854 445.651C205.006 445.712 209.259 445.714 213.575 445.671C222.36 445.584 231.451 445.275 240.815 444.84C254.449 444.206 268.64 443.271 283.153 442.179C302.737 440.705 322.906 438.966 343.209 437.366C358.216 436.186 373.276 435.089 388.197 434.226C388.593 434.203 388.987 434.168 389.383 434.145C396.771 433.724 404.142 433.363 411.431 433.082C416.408 432.891 421.359 432.743 426.27 432.632C428.725 432.577 431.176 432.519 433.612 432.486L558.412 430.82L550.318 466.888L553.841 468.333C555.598 468.939 558.815 469.184 560.324 469.17C561.172 469.162 562.077 469.068 563.007 468.878C563.317 468.815 563.628 468.727 563.941 468.645C564.244 468.564 564.571 468.478 564.874 468.38C565.5 468.177 566.131 467.939 566.738 467.663C568.547 466.842 570.242 465.677 571.467 464.277C571.477 464.266 571.489 464.256 571.498 464.245C572.112 463.537 572.587 462.777 572.931 461.941L584.597 430.443L694.524 428.977C695.276 429.34 696.011 429.699 696.759 430.036C699.76 431.389 702.71 432.541 705.658 433.523C707.128 434.013 708.591 434.453 710.055 434.861C715.178 436.288 720.281 437.253 725.447 437.871C728.399 438.224 731.383 438.472 734.398 438.638C735.905 438.72 737.434 438.77 738.963 438.816C742.022 438.909 745.105 438.933 748.279 438.921C754.626 438.896 761.256 438.719 768.276 438.609C778.685 438.447 788.587 437.761 798.029 436.582C801.805 436.111 805.505 435.568 809.129 434.94C816.378 433.684 823.315 432.099 829.965 430.239C831.627 429.774 833.286 429.288 834.911 428.787C839.788 427.282 844.476 425.612 849.022 423.785C850.538 423.176 852.046 422.577 853.525 421.933C856.484 420.645 859.367 419.285 862.181 417.86C863.589 417.148 864.995 416.415 866.366 415.669C869.11 414.178 871.786 412.604 874.388 410.981C875.689 410.17 876.959 409.327 878.224 408.484C884.554 404.264 890.451 399.666 895.917 394.675C900.284 390.686 904.391 386.461 908.221 382.012C908.226 382.006 908.215 381.987 908.22 381.981C909.174 380.873 910.123 379.76 911.043 378.624C911.048 378.618 911.038 378.599 911.043 378.593C911.963 377.458 912.883 376.306 913.771 375.144C913.775 375.138 913.765 375.119 913.77 375.113C916.441 371.612 918.973 368.012 921.352 364.274C921.357 364.267 921.346 364.25 921.351 364.243C922.141 363.002 922.942 361.753 923.699 360.487C923.704 360.479 923.694 360.463 923.699 360.456C925.98 356.642 928.146 352.733 930.141 348.698C930.145 348.69 930.137 348.675 930.14 348.666C930.803 347.327 931.446 345.968 932.077 344.605C932.081 344.596 932.073 344.582 932.077 344.573C932.708 343.21 933.35 341.836 933.95 340.45C933.954 340.441 933.946 340.427 933.95 340.419C935.153 337.637 936.301 334.83 937.381 331.958C937.384 331.949 937.376 331.936 937.38 331.927C937.918 330.495 938.43 329.043 938.938 327.589C938.94 327.58 938.934 327.567 938.937 327.558C939.445 326.105 939.954 324.634 940.431 323.159C940.908 321.685 941.383 320.195 941.83 318.699C941.833 318.69 941.827 318.677 941.83 318.668C942.277 317.172 942.718 315.663 943.135 314.147C943.137 314.137 943.131 314.126 943.134 314.116C943.551 312.6 943.957 311.07 944.344 309.534C944.347 309.524 944.341 309.513 944.344 309.503C945.51 304.874 946.566 300.161 947.467 295.359L947.466 295.328C947.765 293.733 948.028 292.114 948.298 290.502L948.297 290.47C950.195 279.121 951.399 267.357 951.903 255.191C951.904 255.181 951.902 255.17 951.903 255.16C951.974 253.431 952.027 251.682 952.071 249.938C952.071 249.927 952.071 249.917 952.071 249.907C952.159 246.408 952.208 242.896 952.187 239.341C952.187 239.331 952.187 239.32 952.187 239.31C952.176 237.527 952.141 235.732 952.103 233.935C952.093 233.3 952.061 232.665 952.042 232.03C952.042 231.395 952.053 230.759 952.043 230.123C952.025 228.327 952.004 226.532 951.959 224.749C951.959 224.739 951.959 224.728 951.959 224.718C951.869 221.164 951.71 217.655 951.513 214.161C951.512 214.151 951.513 214.14 951.512 214.13C951.414 212.388 951.306 210.642 951.181 208.916C951.18 208.905 951.181 208.895 951.181 208.884C950.297 196.74 948.726 185.019 946.475 173.735V173.704C946.155 172.1 945.842 170.49 945.494 168.906L945.493 168.875C944.443 164.103 943.24 159.425 941.93 154.835C941.927 154.825 941.933 154.813 941.929 154.804C941.494 153.28 941.041 151.764 940.577 150.262C940.574 150.252 940.58 150.24 940.577 150.23C940.113 148.728 939.625 147.234 939.132 145.752C939.128 145.744 939.134 145.73 939.131 145.721C938.638 144.24 938.116 142.766 937.593 141.307C937.07 139.848 936.515 138.394 935.963 136.957C935.96 136.948 935.965 136.935 935.962 136.926C935.41 135.489 934.853 134.053 934.27 132.639C934.266 132.63 934.274 132.617 934.27 132.608C933.101 129.771 931.866 127.001 930.577 124.258C930.572 124.251 930.58 124.236 930.576 124.227C929.933 122.86 929.248 121.507 928.575 120.164C928.571 120.156 928.579 120.141 928.574 120.133C927.901 118.79 927.215 117.452 926.512 116.134C926.508 116.126 926.515 116.11 926.511 116.102C924.391 112.131 922.105 108.292 919.705 104.551C919.7 104.544 919.71 104.528 919.705 104.52C918.908 103.278 918.069 102.055 917.241 100.838C917.236 100.832 917.246 100.814 917.24 100.807C914.746 97.1458 912.103 93.6259 909.324 90.2107C909.319 90.2047 909.329 90.1854 909.324 90.1796C908.4 89.0454 907.445 87.9232 906.49 86.817C906.485 86.8111 906.494 86.7917 906.489 86.7859C905.534 85.6797 904.55 84.5963 903.563 83.5186C903.558 83.5127 903.567 83.4933 903.562 83.4874C899.596 79.1599 895.359 75.0652 890.87 71.2153C885.251 66.3967 879.212 61.9849 872.755 57.965C871.463 57.1611 870.168 56.3589 868.842 55.5883C866.191 54.047 863.467 52.558 860.678 51.1526C859.284 50.4499 857.856 49.7618 856.427 49.0938C853.569 47.7577 850.645 46.4876 847.648 45.2928C846.149 44.6954 844.623 44.1439 843.089 43.5825C838.488 41.8983 833.75 40.3753 828.829 39.0232C827.189 38.5725 825.516 38.1387 823.839 37.7258C817.135 36.0741 810.152 34.7066 802.868 33.6776C799.225 33.1631 795.511 32.7361 791.721 32.3826C782.248 31.4978 772.329 31.1212 761.92 31.2836C754.9 31.3932 748.268 31.4226 741.922 31.5958C738.75 31.6825 735.67 31.8034 732.615 31.9911C731.088 32.0848 729.561 32.1826 728.057 32.3122C725.049 32.5715 722.074 32.9125 719.135 33.3577C713.991 34.1366 708.92 35.26 703.844 36.8468C702.394 37.3003 700.946 37.7858 699.491 38.3212C696.575 39.3947 693.662 40.6378 690.705 42.0836C689.968 42.4438 689.245 42.8263 688.504 43.2118L578.585 45.1772L565.942 14.0581C565.572 13.2338 565.073 12.4881 564.438 11.8001C564.427 11.7897 564.416 11.7798 564.406 11.7694C563.138 10.408 561.407 9.29691 559.574 8.53192C558.958 8.27555 558.32 8.05699 557.688 7.87376C557.382 7.78523 557.053 7.70925 556.747 7.63842C556.432 7.56562 556.118 7.48797 555.806 7.43432C554.871 7.27299 553.963 7.20804 553.115 7.22628V7.22616Z" fill="black" fill-opacity="0.996078" stroke="#191919" stroke-width="14"/>
<path id="Vector_2" d="M553.115 7.22616C551.607 7.2587 548.399 7.6059 546.662 8.26448L543.186 9.81891L552.4 45.5232L427.608 47.7519C349.658 49.1337 260.927 38.8479 194.554 41.8876C128.18 44.9272 42.8856 72.2577 42.8856 72.2577L29.2589 76.2521C10.0927 81.8481 5.06278 174.009 6.14586 243.415C6.16322 244.528 6.20766 245.667 6.22976 246.789C6.24267 247.911 6.23381 249.051 6.25118 250.164C7.33426 319.57 15.2373 411.528 34.5688 416.524L48.3135 420.091C48.3135 420.091 134.42 444.747 200.855 445.714C267.291 446.681 355.658 433.632 433.614 432.581L558.414 430.914L550.318 466.889L553.841 468.334C555.598 468.938 558.815 469.185 560.324 469.17C561.172 469.162 562.077 469.069 563.007 468.878C563.317 468.815 563.628 468.728 563.941 468.645C564.244 468.565 564.571 468.478 564.874 468.381C565.5 468.178 566.131 467.939 566.738 467.664C568.547 466.844 570.242 465.706 571.468 464.308C571.478 464.298 571.489 464.287 571.498 464.277C572.112 463.571 572.588 462.807 572.931 461.973L584.598 430.537L694.525 429.072C718.609 440.64 740.198 439.079 768.277 438.641C901.509 436.562 954.529 349.137 952.11 234.373C952.098 233.592 952.066 232.807 952.042 232.03C952.042 231.251 952.049 230.466 952.037 229.686C950.874 114.901 895.152 29.1734 761.919 31.2525C733.841 31.6906 712.214 30.8043 688.502 43.1181L578.583 45.0834L565.941 14.0269C565.572 13.2041 565.073 12.4556 564.437 11.7688C564.427 11.7586 564.415 11.7486 564.405 11.7381C563.137 10.3793 561.407 9.29541 559.574 8.53192C558.958 8.27605 558.319 8.05662 557.688 7.87376C557.382 7.78543 557.053 7.70905 556.747 7.63841C556.432 7.56572 556.118 7.48786 555.806 7.43432C554.871 7.27329 553.963 7.20804 553.115 7.22628V7.22616Z" fill="#DCE006" fill-opacity="0.99"/>
<path id="Vector_3" opacity="0.9" d="M348.597 372.005C315.237 372.526 283.326 374.824 253.876 378.547C280.293 426.854 352.321 407.279 459.903 406.867C509.593 406.676 549.465 407.349 581.455 407.345C533.937 384.75 447.337 370.465 348.597 372.005Z" fill="#262626" fill-opacity="0.996078"/>
<path id="Vector_4" opacity="0.5" d="M348.597 372.005C345.391 372.055 342.215 372.135 339.037 372.217C340.107 388.373 345.936 402.37 354.235 410.828C358.904 410.68 363.725 410.484 368.665 410.259C359.972 402.202 353.727 388.262 352.346 371.947C351.095 371.961 349.852 371.986 348.597 372.005Z" fill="black" fill-opacity="0.996078"/>
<path id="Vector_5" d="M936.774 335.087L931.69 335.76C910.187 338.609 894.412 362.324 893.265 390.898L893.001 398.028L898.175 393.103C913.833 378.176 925.967 360.158 934.753 339.775L936.774 335.087Z" fill="#212121" stroke="#191919" stroke-width="5"/>
<path id="Vector_6" opacity="0.5" d="M731.424 349.291C731.424 349.291 810.739 325.454 836.288 315.669C862.971 305.449 934.524 274.985 934.524 274.985C934.524 274.985 926.447 317.586 904.949 333.372C828.591 389.44 673.131 390.85 673.131 390.85" stroke="#292929" stroke-width="6" stroke-linecap="round" stroke-linejoin="round"/>
<path id="Vector_7" d="M817.586 327.284L813.185 329.696C814.192 330.838 815.019 332.097 815.62 333.503C820.6 345.143 805.342 362.903 789.307 369.699C788.793 369.916 787.507 370.568 785.927 371.408L799.49 367.321C816.661 358.594 826.597 343.813 821.956 332.966C821.005 330.743 819.516 328.838 817.586 327.284Z" fill="url(#paint0_linear)"/>
<path id="Vector_8" d="M826.099 322.689L821.699 325.102C822.706 326.243 823.532 327.502 824.134 328.908C829.114 340.549 813.855 358.308 797.82 365.104C797.307 365.322 796.021 365.973 794.44 366.814L808.003 362.726C825.175 354 835.11 339.219 830.47 328.372C829.519 326.149 828.03 324.243 826.099 322.689Z" fill="url(#paint1_linear)"/>
<path id="Vector_9" d="M832.263 321.179L827.863 323.591C828.87 324.733 829.696 325.992 830.298 327.398C835.278 339.038 820.019 356.797 803.985 363.594C803.471 363.811 802.185 364.463 800.605 365.303L814.167 361.216C831.339 352.489 841.274 337.708 836.634 326.861C835.683 324.638 834.194 322.733 832.263 321.179Z" fill="url(#paint2_linear)"/>
<path id="Vector_10" d="M849.101 316.642L842.943 318.582C843.93 320.28 844.653 322.088 845.06 324.019C848.429 340.002 824.635 358.625 802.635 363.185C799.25 363.887 773.888 372.211 770.618 372.49L770.682 376.615L811.927 363.822C838.123 357.916 856.52 340.675 853.2 324.923C852.556 321.871 851.152 319.095 849.101 316.642Z" fill="url(#paint3_linear)"/>
<path id="Vector_11" d="M849.101 316.642L842.943 318.582C843.93 320.28 844.653 322.088 845.06 324.019C848.429 340.002 824.635 358.625 802.635 363.185C799.25 363.887 773.888 372.211 770.618 372.49L770.682 376.615L811.927 363.822C838.123 357.916 856.52 340.675 853.2 324.923C852.556 321.871 851.152 319.095 849.101 316.642Z" fill="url(#paint4_linear)"/>
<path id="Vector_12" d="M804.813 332.103L800.882 334.258C801.781 335.278 802.519 336.403 803.057 337.659C807.506 348.058 793.875 363.922 779.551 369.993C779.092 370.188 777.943 370.77 776.531 371.52L788.647 367.869C803.987 360.073 812.862 346.869 808.717 337.179C807.867 335.194 806.537 333.491 804.813 332.103Z" fill="url(#paint5_linear)"/>
<path id="Vector_13" d="M791.063 335.891L787.132 338.047C788.032 339.066 788.77 340.191 789.307 341.447C793.756 351.846 780.125 367.71 765.801 373.782C765.342 373.976 764.193 374.558 762.781 375.309L774.897 371.657C790.237 363.862 799.113 350.657 794.967 340.968C794.118 338.982 792.787 337.28 791.063 335.891Z" fill="url(#paint6_linear)"/>
<path id="Vector_14" d="M181.395 365.101C189.655 362.948 196.855 363.38 201.28 370.578L199.066 388.512C192.288 394.791 185.395 393.676 178.446 388.989L181.395 365.101Z" fill="url(#paint7_linear)"/>
<path id="Vector_15" d="M201.719 368.047C209.849 366.71 216.875 367.238 220.646 373.26L218.539 390.329C212.102 393.405 205.639 395.741 198.912 390.783L201.719 368.047Z" fill="url(#paint8_linear)"/>
<path id="Vector_16" opacity="0.9" d="M348.558 369.519C315.108 370.041 283.102 372.33 253.556 376.065L249.907 376.528L251.676 379.751C258.544 392.31 268.565 400.603 281.147 405.732C293.729 410.86 308.834 412.913 326.366 413.465C361.43 414.567 406.27 409.586 459.911 409.38C509.573 409.19 549.438 409.862 581.463 409.859L582.514 405.092C534.301 382.166 447.562 367.974 348.558 369.519ZM348.636 374.519C439.795 373.096 520.573 385.316 569.227 404.799C539.269 404.684 503.998 404.211 459.896 404.38C405.955 404.587 360.989 409.576 326.539 408.493C309.314 407.951 294.727 405.883 283.013 401.108C272.491 396.82 264.355 390.244 258.19 380.587C286.447 377.162 316.844 375.015 348.636 374.519Z" fill="#191919"/>
<path id="Vector_17" opacity="0.9" d="M204.904 126.362L127.359 140.042C100.28 144.819 79.1787 189.573 78.0015 245.669C80.9285 301.701 103.416 345.774 130.631 349.704L208.565 360.958C221.859 360.751 232.395 349.881 232.187 336.587L229.275 149.984C229.068 136.69 218.198 126.154 204.904 126.362Z" fill="#262626" fill-opacity="0.996078" stroke="#191919" stroke-width="5"/>
<path id="Vector_18" opacity="0.9" d="M635.782 85.4147C632.813 85.461 629.894 85.8387 627.017 86.5203C627.006 86.5105 626.996 86.4996 626.985 86.4896L563.342 99.7967C545.719 106.678 531.569 114.567 531.845 132.293L535.162 344.829C535.439 362.555 549.828 369.999 567.657 376.326L631.684 387.641C631.695 387.63 631.705 387.619 631.715 387.609C634.613 388.201 637.542 388.487 640.51 388.441C685.9 387.732 721.803 329.803 720.448 235.644C718.864 141.488 681.172 84.7064 635.782 85.4147Z" fill="#262626" fill-opacity="0.996078" stroke="#191919" stroke-width="5"/>
<path id="Vector_19" opacity="0.9" d="M344.523 110.951C311.163 111.471 279.196 110.17 249.644 107.368C274.541 58.2594 347.145 75.5771 454.688 72.6328C504.359 71.2729 544.19 69.3565 576.166 68.3618C529.376 92.429 443.263 109.41 344.523 110.951Z" fill="#262626" fill-opacity="0.996078"/>
<path id="Vector_20" opacity="0.5" d="M344.523 110.951C341.317 111.001 338.14 111.021 334.961 111.037C335.527 94.855 340.916 80.6836 348.947 71.9701C353.619 71.9728 358.444 72.0184 363.388 72.0885C354.951 80.4134 349.144 94.5415 348.273 110.892C347.022 110.917 345.778 110.931 344.523 110.951Z" fill="black" fill-opacity="0.996078"/>
<path id="Vector_21" d="M933.565 129.498L928.463 128.984C906.882 126.808 890.374 103.597 888.336 75.072L887.85 67.9538L893.175 72.715C909.291 87.1457 921.982 104.777 931.399 124.875L933.565 129.498Z" fill="#212121" stroke="#191919" stroke-width="5"/>
<path id="Vector_22" opacity="0.5" d="M727.872 121.709C727.872 121.709 807.892 143.059 833.735 152.042C860.724 161.424 933.192 189.641 933.192 189.641C933.192 189.641 923.79 147.313 901.809 132.205C823.739 78.547 668.312 81.9885 668.312 81.9885" stroke="#292929" stroke-width="6" stroke-linecap="round" stroke-linejoin="round"/>
<path id="Vector_23" d="M814.679 141.017L810.205 138.743C811.176 137.571 811.963 136.286 812.52 134.862C817.135 123.072 801.33 105.797 785.09 99.5042C784.571 99.3028 783.265 98.692 781.659 97.9013L795.342 101.564C812.778 109.75 823.17 124.214 818.87 135.201C817.989 137.452 816.56 139.403 814.679 141.017Z" fill="url(#paint9_linear)"/>
<path id="Vector_24" d="M823.332 145.344L818.858 143.069C819.829 141.897 820.616 140.613 821.173 139.189C825.787 127.398 809.982 110.124 793.743 103.831C793.223 103.63 791.917 103.019 790.312 102.228L803.995 105.89C821.431 114.077 831.823 128.541 827.523 139.527C826.642 141.779 825.213 143.73 823.332 145.344Z" fill="url(#paint10_linear)"/>
<path id="Vector_25" d="M829.54 146.661L825.067 144.387C826.038 143.215 826.824 141.93 827.381 140.506C831.996 128.716 816.191 111.442 799.952 105.149C799.432 104.947 798.126 104.337 796.52 103.546L810.204 107.208C827.639 115.394 838.031 129.858 833.731 140.845C832.85 143.096 831.421 145.048 829.54 146.661Z" fill="url(#paint11_linear)"/>
<path id="Vector_26" d="M846.511 150.67L840.296 148.923C841.229 147.195 841.895 145.365 842.241 143.423C845.11 127.343 820.747 109.471 798.615 105.599C795.21 105.004 769.601 97.4745 766.324 97.2972L766.259 93.1727L807.883 104.673C834.251 109.759 853.177 126.417 850.349 142.265C849.801 145.336 848.485 148.155 846.511 150.67Z" fill="url(#paint12_linear)"/>
<path id="Vector_27" d="M846.511 150.67L840.296 148.923C841.229 147.195 841.895 145.365 842.241 143.423C845.11 127.343 820.747 109.471 798.615 105.599C795.21 105.004 769.601 97.4745 766.324 97.2972L766.259 93.1727L807.883 104.673C834.251 109.759 853.177 126.417 850.349 142.265C849.801 145.336 848.485 148.155 846.511 150.67Z" fill="url(#paint13_linear)"/>
<path id="Vector_28" d="M801.762 136.598L797.766 134.567C798.633 133.52 799.336 132.373 799.833 131.1C803.956 120.568 789.836 105.136 775.33 99.5143C774.865 99.3343 773.699 98.7886 772.264 98.0823L784.488 101.354C800.064 108.667 809.347 121.588 805.506 131.403C804.719 133.414 803.442 135.157 801.762 136.598Z" fill="url(#paint14_linear)"/>
<path id="Vector_29" d="M787.9 133.241L783.904 131.209C784.772 130.162 785.474 129.015 785.972 127.743C790.094 117.21 775.975 101.779 761.468 96.1568C761.004 95.9768 759.837 95.4312 758.403 94.7249L770.627 97.9962C786.202 105.31 795.485 118.231 791.644 128.045C790.857 130.057 789.581 131.8 787.9 133.241Z" fill="url(#paint15_linear)"/>
<path id="Vector_30" d="M177.618 123.069C185.941 124.963 193.124 124.306 197.322 116.974L194.55 99.1177C187.579 93.0525 180.724 94.382 173.925 99.2842L177.618 123.069Z" fill="url(#paint16_linear)"/>
<path id="Vector_31" d="M197.84 119.49C206.009 120.573 213.014 119.826 216.595 113.689L213.956 96.6934C207.427 93.8202 200.894 91.687 194.326 96.8518L197.84 119.49Z" fill="url(#paint17_linear)"/>
<path id="Vector_32" opacity="0.9" d="M344.562 113.437C311.112 113.959 279.05 112.669 249.402 109.859L245.74 109.509L247.408 106.233C253.88 93.4655 263.638 84.8633 276.054 79.3448C288.47 73.8263 303.504 71.303 321.01 70.2048C356.022 68.0084 400.995 71.588 454.617 70.12C504.261 68.7608 544.085 66.8449 576.095 65.849L577.294 70.5809C529.82 95 443.566 111.892 344.562 113.437ZM344.484 108.437C435.642 107.015 516 92.2801 564.022 71.2881C534.083 72.3377 498.844 73.9114 454.758 75.1184C400.837 76.5946 355.737 73.011 321.337 75.1689C304.138 76.2479 289.623 78.7696 278.063 83.9077C267.68 88.5224 259.754 95.3491 253.892 105.194C282.243 107.735 312.692 108.933 344.484 108.437Z" fill="#191919"/>
<g id="Right">
<path id="Vector_33" fill-rule="evenodd" clip-rule="evenodd" d="M901.03 52.2616L922.001 13.1589L896.763 49.6535L908.794 7.5851L891.858 48.3907L894.193 6L886.623 48.5526L879.116 8.50315L881.387 50.1291L864.509 14.9373L876.479 53.021L851.29 24.8981L872.207 57.0466L840.29 37.7598L861.438 55.6809L911.774 86.4485L937.367 97.0978L905.648 77.4874L943.798 81.4436L907.283 71.8498L946.635 65.1371L907.618 66.163L945.7 49.2032L906.634 60.784L941.053 34.6428L904.391 56.0512L932.984 22.371L901.03 52.2616Z" fill="#FFB800"/>
<path id="Vector_34" fill-rule="evenodd" clip-rule="evenodd" d="M33.54 54.5826L22.3599 23.5644L29.5649 55.7391L11.5346 28.3633L26.0221 57.9154L2.27437 35.9021L23.1339 60.9747L-4.83893 45.7071L21.082 64.7248L-9.35837 57.1623L19.9952 68.93L-11 69.5477L19.9419 73.3262L-9.66059 82.0854L12.996 78.7902L59.8891 65.1473L80.7772 55.7734L51.096 64.2622L75.1815 44.4743L48.6926 60.5808L67.1517 34.9025L45.5194 57.615L57.1924 27.6599L41.776 55.5509L45.9292 23.2014L37.6974 54.5186L34.07 21.8069L33.54 54.5826Z" fill="#FFB800"/>
</g>
<g id="Left">
<path id="Vector_35" fill-rule="evenodd" clip-rule="evenodd" d="M30.0217 428.84L17.4931 459.339L33.7448 430.651L28.739 463.046L37.8318 431.415L40.6635 463.672L42.0261 431.086L52.5173 461.177L46.064 429.682L63.5556 455.718L49.6919 427.294L73.0847 447.638L52.6818 424.071L80.506 437.444L61.4983 424.682L17.5781 403.325L-4.1981 396.256L23.5029 409.882L-7.63295 408.388L22.814 414.224L-8.10388 420.873L23.1759 418.553L-5.58129 432.926L24.5659 422.595L-0.223661 443.79L26.8966 426.098L7.63235 452.783L30.0217 428.84Z" fill="#FFB800"/>
<path id="Vector_36" fill-rule="evenodd" clip-rule="evenodd" d="M910.032 408.105L936.647 444.148L914.249 405.344L947.419 434.52L917.513 401.419L955.155 421.895L919.621 396.577L959.369 407.066L920.44 391.121L959.797 390.965L919.918 385.395L956.411 374.603L918.089 379.758L949.424 359.009L923.973 370.532L874.235 403.103L853.498 421.826L885.044 401.397L865 434.464L889.479 405.328L878.644 444.108L894.52 408.095L893.574 450.153L899.848 409.525L908.851 452.218L905.129 409.529L923.516 450.173L910.032 408.105Z" fill="#FFB800"/>
</g>
</g>
</g>
</g>
<defs>
<linearGradient id="paint0_linear" x1="827.59" y1="348.943" x2="804.313" y2="341.68" gradientUnits="userSpaceOnUse">
<stop stop-color="#1A1A1A"/>
<stop offset="1" stop-color="#F30000" stop-opacity="0"/>
</linearGradient>
<linearGradient id="paint1_linear" x1="857.077" y1="335.092" x2="845.321" y2="335.34" gradientUnits="userSpaceOnUse">
<stop stop-color="#1A1A1A"/>
<stop offset="1" stop-color="#F30000" stop-opacity="0"/>
</linearGradient>
<linearGradient id="paint2_linear" x1="855.385" y1="342.85" x2="791.233" y2="338.26" gradientUnits="userSpaceOnUse">
<stop stop-color="#1A1A1A"/>
<stop offset="1" stop-color="#F30000" stop-opacity="0"/>
</linearGradient>
<linearGradient id="paint3_linear" x1="866.62" y1="348.987" x2="853.049" y2="342.172" gradientUnits="userSpaceOnUse">
<stop stop-color="#1A1A1A"/>
<stop offset="1" stop-color="#F30000" stop-opacity="0"/>
</linearGradient>
<linearGradient id="paint4_linear" x1="850.261" y1="358.897" x2="804.748" y2="308.627" gradientUnits="userSpaceOnUse">
<stop stop-color="#1A1A1A"/>
<stop offset="1" stop-color="#F30000" stop-opacity="0"/>
</linearGradient>
<linearGradient id="paint5_linear" x1="835.194" y1="342.737" x2="761.429" y2="345.006" gradientUnits="userSpaceOnUse">
<stop stop-color="#1A1A1A"/>
<stop offset="1" stop-color="#F30000" stop-opacity="0"/>
</linearGradient>
<linearGradient id="paint6_linear" x1="814.425" y1="354.805" x2="753.846" y2="352.177" gradientUnits="userSpaceOnUse">
<stop stop-color="#1A1A1A"/>
<stop offset="1" stop-color="#F30000" stop-opacity="0"/>
</linearGradient>
<linearGradient id="paint7_linear" x1="201.455" y1="381.661" x2="178.203" y2="373.288" gradientUnits="userSpaceOnUse">
<stop stop-color="#1A1A1A"/>
<stop offset="1" stop-color="#F30000" stop-opacity="0"/>
</linearGradient>
<linearGradient id="paint8_linear" x1="220.813" y1="383.824" x2="198.757" y2="380.688" gradientUnits="userSpaceOnUse">
<stop stop-color="#1A1A1A"/>
<stop offset="1" stop-color="#F30000" stop-opacity="0"/>
</linearGradient>
<linearGradient id="paint9_linear" x1="824.003" y1="119.056" x2="800.963" y2="127.042" gradientUnits="userSpaceOnUse">
<stop stop-color="#1A1A1A"/>
<stop offset="1" stop-color="#F30000" stop-opacity="0"/>
</linearGradient>
<linearGradient id="paint10_linear" x1="853.907" y1="131.98" x2="842.149" y2="132.099" gradientUnits="userSpaceOnUse">
<stop stop-color="#1A1A1A"/>
<stop offset="1" stop-color="#F30000" stop-opacity="0"/>
</linearGradient>
<linearGradient id="paint11_linear" x1="851.974" y1="124.278" x2="787.997" y2="130.868" gradientUnits="userSpaceOnUse">
<stop stop-color="#1A1A1A"/>
<stop offset="1" stop-color="#F30000" stop-opacity="0"/>
</linearGradient>
<linearGradient id="paint12_linear" x1="863.012" y1="117.794" x2="849.66" y2="125.029" gradientUnits="userSpaceOnUse">
<stop stop-color="#1A1A1A"/>
<stop offset="1" stop-color="#F30000" stop-opacity="0"/>
</linearGradient>
<linearGradient id="paint13_linear" x1="846.352" y1="108.4" x2="802.43" y2="160.065" gradientUnits="userSpaceOnUse">
<stop stop-color="#1A1A1A"/>
<stop offset="1" stop-color="#F30000" stop-opacity="0"/>
</linearGradient>
<linearGradient id="paint14_linear" x1="831.796" y1="125.021" x2="757.997" y2="125.055" gradientUnits="userSpaceOnUse">
<stop stop-color="#1A1A1A"/>
<stop offset="1" stop-color="#F30000" stop-opacity="0"/>
</linearGradient>
<linearGradient id="paint15_linear" x1="810.661" y1="113.607" x2="750.194" y2="118.124" gradientUnits="userSpaceOnUse">
<stop stop-color="#1A1A1A"/>
<stop offset="1" stop-color="#F30000" stop-opacity="0"/>
</linearGradient>
<linearGradient id="paint16_linear" x1="197.152" y1="105.89" x2="174.172" y2="114.985" gradientUnits="userSpaceOnUse">
<stop stop-color="#1A1A1A"/>
<stop offset="1" stop-color="#F30000" stop-opacity="0"/>
</linearGradient>
<linearGradient id="paint17_linear" x1="216.433" y1="103.125" x2="194.485" y2="106.947" gradientUnits="userSpaceOnUse">
<stop stop-color="#1A1A1A"/>
<stop offset="1" stop-color="#F30000" stop-opacity="0"/>
</linearGradient>
<clipPath id="clip0">
</clipPath>
</defs>
</svg>
