<?xml version="1.0" encoding="utf-8"?>
<!-- Generator: Adobe Illustrator 15.0.0, SVG Export Plug-In . SVG Version: 6.00 Build 0)  -->
<!DOCTYPE svg PUBLIC "-//W3C//DTD SVG 1.1//EN" "http://www.w3.org/Graphics/SVG/1.1/DTD/svg11.dtd">
<svg version="1.1" id="Vrstva_1" xmlns="http://www.w3.org/2000/svg" xmlns:xlink="http://www.w3.org/1999/xlink" x="0px" y="0px"
	 width="300px" height="300px" viewBox="0 0 300 300" enable-background="new 0 0 300 300" xml:space="preserve">
<path fill-rule="evenodd" clip-rule="evenodd" d="M286.274,25.602c1.915,0.821,4.655,2.464,7.122,4.655
	c4.653,4.38,7.114,11.224,6.295,17.523c-0.272,3.011-1.642,6.296-2.464,7.939c-0.824,1.644-0.824,1.644-1.098,1.917L168.271,279.406
	c-6.572,9.315-16.153,11.503-25.19,8.49c-2.464-0.82-4.655-2.19-6.297-3.558c-1.915-1.369-3.285-3.015-4.38-4.933L4.267,57.636
	c-4.379-7.393-5.201-14.784-0.821-22.451c2.739-5.203,7.12-8.214,11.227-9.855c2.464-0.823,4.927-1.371,7.392-1.371h256.269
	C282.167,24.233,282.99,24.233,286.274,25.602"/>
<path fill-rule="evenodd" clip-rule="evenodd" fill="#FFFFFF" d="M284.357,27.793c2.74,1.095,6.024,2.463,9.585,7.392
	c3.285,5.203,4.107,10.678,2.19,16.154c-0.275,1.37-1.096,2.739-1.645,3.56c-0.275,0.823-0.546,1.096-0.546,1.368L165.806,278.041
	c-6.024,8.49-15.059,10.405-23.545,6.573c-1.643-0.825-3.287-1.92-4.655-3.016c-1.095-1.092-2.19-2.192-3.012-3.558L6.458,56.266
	c-3.012-4.927-4.107-10.951-2.189-16.427c0.821-2.463,2.189-4.928,3.832-6.844c3.833-4.107,9.036-6.298,13.963-6.298
	c86.519,0.274,172.766-0.273,259.286,0.274C282.167,27.245,283.265,27.245,284.357,27.793"/>
<path fill-rule="evenodd" clip-rule="evenodd" fill="#D9261C" d="M282.44,32.721c2.192,0.821,4.657,1.916,6.849,4.928
	c3.282,4.928,3.558,10.405,0,15.881L161.151,275.305c-5.202,6.567-12.047,7.39-18.891,3.285c-1.095-0.824-2.19-1.92-3.012-3.285
	L11.113,53.53c-3.012-4.928-3.56-10.131,0-15.606c3.287-4.381,7.119-5.75,10.951-5.75h256.269
	C279.703,32.173,281.074,32.448,282.44,32.721"/>
<polyline fill-rule="evenodd" clip-rule="evenodd" fill="#FFFFFF" points="248.491,62.017 51.633,62.017 149.926,232.319 "/>
</svg>
